<?xml version="1.0" standalone="no"?>
<!DOCTYPE svg PUBLIC "-//W3C//DTD SVG 20010904//EN"
 "http://www.w3.org/TR/2001/REC-SVG-20010904/DTD/svg10.dtd">
<svg version="1.0" xmlns="http://www.w3.org/2000/svg"
 width="225.000000pt" height="225.000000pt" viewBox="0 0 225.000000 225.000000"
 preserveAspectRatio="xMidYMid meet">

<g transform="translate(0.000000,225.000000) scale(0.100000,-0.100000)"
fill="#000000" stroke="none">
<path d="M1722 1586 c-2 -35 -7 -77 -11 -92 -6 -24 -2 -36 20 -64 33 -41 56
-101 66 -173 l7 -52 7 40 c24 129 -9 305 -72 388 -12 15 -14 9 -17 -47z"/>
<path d="M707 1548 c-134 -132 -219 -271 -258 -428 -17 -65 -20 -105 -17 -189
3 -94 7 -114 35 -174 117 -248 415 -334 739 -212 37 14 69 27 70 28 1 1 -55 2
-124 2 -190 0 -272 33 -407 164 -106 103 -141 203 -132 375 7 149 63 293 167
430 22 29 40 58 40 64 0 30 -45 6 -113 -60z"/>
<path d="M1791 1184 c0 -11 3 -14 6 -6 3 7 2 16 -1 19 -3 4 -6 -2 -5 -13z"/>
</g>
</svg>
