<?xml version="1.0" standalone="no"?>
<!DOCTYPE svg PUBLIC "-//W3C//DTD SVG 20010904//EN"
 "http://www.w3.org/TR/2001/REC-SVG-20010904/DTD/svg10.dtd">
<svg version="1.0" xmlns="http://www.w3.org/2000/svg"
 width="200.000000pt" height="200.000000pt" viewBox="0 0 200.000000 200.000000"
 preserveAspectRatio="xMidYMid meet">

<g transform="translate(0.000000,200.000000) scale(0.100000,-0.100000)"
fill="#000000" stroke="none">
<path d="M971 1882 c-13 -2 -114 -56 -223 -119 l-198 -115 0 -304 c0 -359 -11
-341 135 -240 51 36 203 140 337 232 133 93 275 190 313 217 39 27 82 57 97
66 16 9 28 18 28 21 0 3 -24 18 -53 34 -28 16 -119 68 -202 116 -147 85 -186
101 -234 92z"/>
<path d="M1403 1467 c-90 -62 -262 -179 -383 -262 -135 -92 -219 -156 -220
-167 0 -13 661 -613 707 -641 13 -8 193 92 236 132 15 13 32 41 37 60 13 47
13 775 0 822 -5 19 -22 46 -37 60 -24 22 -165 110 -175 109 -2 -1 -76 -51
-165 -113z"/>
</g>
</svg>
