<?xml version="1.0" encoding="UTF-8"?>
<!-- Generator: Adobe Illustrator 19.2.0, SVG Export Plug-In . SVG Version: 6.00 Build 0)  -->
<svg  version="1.1" viewBox="0 0 169 169" xml:space="preserve" xmlns="http://www.w3.org/2000/svg" >
<style type="text/css">
	.blue{fill:#1072BA;background:transparent;}
	.green{fill:#7FC347;background:transparent;}
</style>
<g transform="translate(0,-265.2)">
	<g transform="translate(-318.2,39.85)">
		<path class="blue" d="m350.1 304c0 2.4 2.7 3.8 4.7 2.5l83.6-57.6-37.5-21.6c-4.5-2.6-10-2.6-14.5 0l-36.3 21z"/>
		<path class="green" d="m339.3 254.5-13.8 8c-4.5 2.6-7.3 7.4-7.3 12.6v70.3c0 5.2 2.8 10 7.3 12.6l13.8 8z"/>
		<path class="blue" d="m461.8 262.5-13.9-8-72.6 49.7c-1.6 1.1-1.8 3.4-0.3 4.7l67.6 60 19.1-11c4.5-2.6 7.3-7.4 7.3-12.6v-70.3c0-5.1-2.7-9.9-7.2-12.5z"/>
		<path class="green" d="m365.3 313.9c-1-0.9-2.6-1-3.7-0.2l-10.2 7.3c-0.8 0.6-1.3 1.5-1.3 2.4v48.6l36.3 21c4.5 2.6 10 2.6 14.5 0l32.5-18.8z"/>
	</g>
</g>
</svg>
