<?xml version="1.0" encoding="UTF-8"?>
<!-- Generator: Adobe Illustrator 19.2.0, SVG Export Plug-In . SVG Version: 6.00 Build 0)  -->
<svg width="704.45" height="169.6" version="1.1" viewBox="0 0 704.45 169.6" xml:space="preserve" xmlns="http://www.w3.org/2000/svg">
<style type="text/css">
	.st0{fill:#818181;}
	.st1{fill:#1072BA;}
	.st2{fill:#7FC347;}
</style>
<g transform="translate(0,-265.2)">
	<g transform="translate(42.453 -104.5)">

			<path class="st0" d="m172.5 474.2-21.8-19.3-7.1 5.1v14.2h-5.6v-39.9h5.7v19.2l27.6-19.2h9.3l-25.2 17.5 25.3 22.4z"/>
			<path class="st0" d="m231.6 471c-3 2.4-7.5 3.6-13.4 3.6-12.2 0-18.4-5.3-18.4-15.8v-24.5h5.7v24.5c0 3.6 1 6.3 3 8s5.2 2.6 9.7 2.6c4.4 0 7.6-0.9 9.7-2.6 2-1.6 3-4.3 3-7.8v-24.7h5.7v24.7c-0.1 5.4-1.7 9.4-5 12z"/>
			<path class="st0" d="m293.9 474.2-27-31v31h-5.7v-39.9h5.1c3.4 4.1 7.9 9.3 13.6 15.7 6.8 7.7 11.3 12.7 13.4 15.1v-30.8h5.6v39.9z"/>
			<path class="st0" d="m323.6 474.2v-39.9h5.7v34.8h25.2v5.1z"/>
			<polygon class="st0" points="408.9 474.2 415.1 474.2 395.8 434.3 391.4 434.3 371.4 474.2 377.7 474.2 393.6 442.6"/>
			<polygon class="st0" points="655.8 474.2 662 474.2 642.7 434.3 638.3 434.3 618.3 474.2 624.6 474.2 640.5 442.6"/>
			<path class="st0" d="m466.4 471.9c-2.9 1.6-6.6 2.4-10.9 2.4h-20.5v-39.9h21.2c4 0 7.3 0.8 9.9 2.5 3.2 2 4.8 4.8 4.8 8.6 0 3.2-1.6 5.8-4.6 7.8 4 1.9 5.9 5 5.9 9.4 0 4-1.9 7.1-5.8 9.2zm-3.7-31c-1.7-1-3.9-1.4-6.6-1.4h-15.4v11.5h15.4c2.7 0 4.9-0.5 6.6-1.5s2.6-2.4 2.6-4.3c-0.1-1.9-0.9-3.4-2.6-4.3zm1 16.8c-1.9-1.1-4.5-1.6-7.7-1.6h-15.2v13h15.5c3 0 5.5-0.5 7.3-1.6 2.1-1.1 3.1-2.8 3.1-4.9-0.1-2.2-1.1-3.9-3-4.9z"/>
			<path class="st0" d="m533.2 469.2c-4.1 3.6-9.5 5.5-16.4 5.5s-12.4-1.8-16.4-5.4-6-8.6-6-14.9 2.1-11.2 6.2-14.7c4-3.4 9.4-5.1 16.3-5.1s12.4 1.7 16.4 5.1c4.1 3.5 6.2 8.4 6.2 14.7-0.2 6.2-2.2 11.1-6.3 14.8zm-3.9-25.8c-2.9-2.5-7.1-3.8-12.5-3.8s-9.5 1.3-12.4 3.8c-2.9 2.6-4.4 6.2-4.4 10.9s1.5 8.4 4.4 11.1 7.1 4.1 12.4 4.1c5.4 0 9.5-1.3 12.5-4 2.9-2.7 4.4-6.4 4.4-11.2 0-4.7-1.5-8.4-4.4-10.9z"/>
			<path class="st0" d="m593.3 454.7c3.1 1.9 4.6 4.8 4.6 8.7v10.8h-5.6v-10.6c0-4.1-3.2-6.1-9.7-6.1h-14.4v16.7h-5.6v-39.9h20.5c10.2 0 15.4 3.7 15.4 11.1 0 4.2-1.7 7.3-5.2 9.3zm-10.1-15.3h-15v12.9h14.1c3.1 0 5.6-0.5 7.5-1.6 2-1.2 3.1-2.9 3.1-5.2-0.1-4-3.3-6.1-9.7-6.1z"/>

	</g>
	<g transform="translate(-318.2,39.85)">
		<path class="st1" d="m350.1 304c0 2.4 2.7 3.8 4.7 2.5l83.6-57.6-37.5-21.6c-4.5-2.6-10-2.6-14.5 0l-36.3 21z"/>
		<path class="st2" d="m339.3 254.5-13.8 8c-4.5 2.6-7.3 7.4-7.3 12.6v70.3c0 5.2 2.8 10 7.3 12.6l13.8 8z"/>
		<path class="st1" d="m461.8 262.5-13.9-8-72.6 49.7c-1.6 1.1-1.8 3.4-0.3 4.7l67.6 60 19.1-11c4.5-2.6 7.3-7.4 7.3-12.6v-70.3c0-5.1-2.7-9.9-7.2-12.5z"/>
		<path class="st2" d="m365.3 313.9c-1-0.9-2.6-1-3.7-0.2l-10.2 7.3c-0.8 0.6-1.3 1.5-1.3 2.4v48.6l36.3 21c4.5 2.6 10 2.6 14.5 0l32.5-18.8z"/>
	</g>
</g>
</svg>
